<?xml version="1.0" encoding="UTF-8"?>
<svg id="Ebene_1" xmlns="http://www.w3.org/2000/svg" viewBox="0 0 200 200">
  <defs>
    <style>
      .cls-1 {
        font-family: Poppins-SemiBold, Poppins;
        font-size: 24px;
        font-weight: 600;
      }

      .cls-1, .cls-2 {
        isolation: isolate;
      }

      .cls-1, .cls-3 {
        fill: #fff;
      }

      .cls-4 {
        fill: #00ddb3;
      }

      .cls-4, .cls-3 {
        stroke-width: 0px;
      }
    </style>
  </defs>
  <rect class="cls-4" width="200" height="200"/>
  <g class="cls-2">
    <text class="cls-1" transform="translate(101.49 144.7)"><tspan x="0" y="0">DOCS</tspan></text>
  </g>
  <path class="cls-3" d="M73.42,126.75c-3.7,0-6.71-3.01-6.71-6.71v-23.81h14.26v-14.87h-42.66v14.87h10.28v23.81c0,13.69,11.14,24.83,24.83,24.83h14.22v-18.12h-14.22Z"/>
  <g>
    <path class="cls-3" d="M58.44,45.56c-6.11,0-11.06,4.95-11.06,11.06s4.95,11.06,11.06,11.06,11.06-4.95,11.06-11.06-4.95-11.06-11.06-11.06ZM58.44,61.65c-2.78,0-5.03-2.25-5.03-5.03s2.25-5.03,5.03-5.03,5.03,2.25,5.03,5.03-2.25,5.03-5.03,5.03Z"/>
    <path class="cls-3" d="M48.59,61.65l6.73,12.83c1.32,2.51,4.92,2.51,6.24,0l6.73-12.83"/>
  </g>
</svg>